<svg width="22" height="18" viewBox="0 0 22 18" fill="none" xmlns="http://www.w3.org/2000/svg">
<path d="M18.7627 3.13058C19.623 2.61491 20.2836 1.7984 20.5947 0.825519C19.7897 1.30293 18.898 1.64968 17.9489 1.83658C17.1889 1.02682 16.1061 0.520813 14.9078 0.520813C12.6067 0.520813 10.7412 2.38627 10.7412 4.68716C10.7412 5.01371 10.7781 5.33171 10.8491 5.63664C7.38636 5.46289 4.31635 3.80417 2.2614 1.28347C1.90276 1.89883 1.6973 2.61454 1.6973 3.37808C1.6973 4.82355 2.43292 6.09883 3.55087 6.84596C2.86784 6.82434 2.22545 6.63693 1.66365 6.32487C1.66335 6.34225 1.66335 6.35971 1.66335 6.37724C1.66335 8.39593 3.09953 10.0799 5.00554 10.4626C4.65589 10.5578 4.28782 10.6087 3.90779 10.6087C3.63934 10.6087 3.37831 10.5827 3.12397 10.534C3.65412 12.1893 5.1928 13.3939 7.01599 13.4275C5.59007 14.545 3.79355 15.211 1.84155 15.211C1.50528 15.211 1.17361 15.1914 0.847656 15.1529C2.69149 16.335 4.88156 17.0247 7.23446 17.0247C14.898 17.0247 19.0887 10.676 19.0887 5.1703C19.0887 4.98964 19.0847 4.80995 19.0767 4.6313C19.8907 4.04388 20.5971 3.31004 21.1557 2.47451C20.4085 2.80589 19.6055 3.02985 18.7627 3.13058Z" fill="#2B2B39"/>
</svg>
